<?xml version="1.0"?>
<svg xmlns="http://www.w3.org/2000/svg" xmlns:xlink="http://www.w3.org/1999/xlink" version="1.1" id="Capa_1" x="0px" y="0px" viewBox="0 0 512 512" style="enable-background:new 0 0 512 512;" xml:space="preserve" width="512px" height="512px" class=""><g><g>
	<path id="XMLID_18_" d="M428.262,0H202.27c-3.981,0-7.799,1.583-10.612,4.399L73.134,123.053   c-0.002,0.002-0.003,0.003-0.005,0.005c-1.829,1.829-4.391,5.293-4.391,10.604V497c0,8.284,6.716,15,15,15h344.524   c8.284,0,15-6.716,15-15V15C443.262,6.716,436.546,0,428.262,0z M188.402,50.108v68.554h-68.479L188.402,50.108z M413.262,482   H98.738V148.662h104.664c8.284,0,15-6.716,15-15V30h194.86V482z" data-original="#000000" class="active-path" data-old_color="#B16060" fill="#FCFCFC"/>
	<path id="XMLID_13_" d="M204.958,189.927v131.98c-12.144-3.056-26.694-2.109-40.882,3.591   c-28.787,11.565-45.157,38.278-36.564,59.666c8.593,21.388,38.896,29.351,67.682,17.786c23.302-9.362,38.463-28.649,38.838-47.003   l0.015,0.002V247.375l91.824-33.528v63.823c-12.144-3.058-26.697-2.11-40.886,3.59c-28.787,11.565-45.157,38.278-36.564,59.666   c8.593,21.388,38.896,29.351,67.682,17.786c23.648-9.5,38.904-29.223,38.837-47.819c0.015-0.021,0.023-0.033,0.02-0.03V145.777   c0-4.748-2.317-9.198-6.208-11.919c-3.891-2.721-8.864-3.372-13.325-1.744l-120.914,44.15   C208.776,178.36,204.958,183.818,204.958,189.927z M184.022,375.141c-13.746,5.523-26.854,5.112-29.276-0.917   c-2.422-6.029,6.757-15.394,20.504-20.917c13.746-5.523,26.854-5.112,29.276,0.917   C206.948,360.253,197.768,369.618,184.022,375.141z M304.931,330.903c-13.746,5.523-26.854,5.112-29.276-0.917   c-2.422-6.029,6.757-15.394,20.504-20.917c13.746-5.523,26.854-5.112,29.276,0.917   C327.857,316.016,318.678,325.381,304.931,330.903z M234.048,200.1l91.824-33.528v16.307l-91.824,33.528V200.1z" data-original="#000000" class="active-path" data-old_color="#B16060" fill="#FCFCFC"/>
</g></g> </svg>
